<svg width="170" height="170" viewBox="0 0 170 170" fill="none" xmlns="http://www.w3.org/2000/svg">
<path fill-rule="evenodd" clip-rule="evenodd" d="M84.5 140.617L130.732 113.858V57.1914L84.5 30.4321L38.2681 57.1914V112.284L84.5 140.617ZM104.464 60.3395L84.5 49.321L64.5362 60.8642V107.562L84.5 119.63L104.464 107.562V60.3395Z" fill="#FF4E1D"/>
<path d="M38.2681 57.1914L12.5254 42.5L84.5 0L157 42.5L130.732 57.1914L84.5 30.4321L38.2681 57.1914Z" fill="#FF8E2D"/>
<path d="M130.732 113.858L84.5 140.617V170L157 126.975V42.5L130.732 57.1914V113.858Z" fill="#FF6F20"/>
<path d="M38.2681 112.284V57.1914L12 42.5V126.975L84.5 170V140.617L38.2681 112.284Z" fill="#F8341A"/>
</svg>
